<svg xmlns="http://www.w3.org/2000/svg" xmlns:xlink="http://www.w3.org/1999/xlink" width="1366" height="768" viewBox="0 0 1366 768"><defs><style>.a{fill:#c1efff;}.b{clip-path:url(#a);}.c{fill:#2f81ff;}</style><clipPath id="a"><rect class="a" width="1366" height="768"/></clipPath></defs><g class="b"><path class="c" d="M1469.137,386.494a66.063,66.063,0,0,0-10.534-33c-12.219-18.953-30.414-35.637-53.047-40.792-23.389-5.327-47.249-3.25-68.4,8.948-36.667,21.15-63.624,53.53-86.445,88.511-13.2,20.235-24.691,41.6-38.534,61.4a155.844,155.844,0,0,1-10.906,11.365q-1.538.949-3.107,1.844-1.409.4-2.829.765-4.937.116-9.868-.139a262.616,262.616,0,0,1-41.624-12.9c-38.816-17.156-76.644-37.264-111-62.2-24.163-20.011-45.518-42.893-67.07-65.705-28.182-29.829-57.947-57.926-92.4-80.568-19.684-12.935-41.274-22.056-63.09-30.784a234.6,234.6,0,0,0-48.615-13.629c-23.574-3.918-47.64-7.2-71.6-5.9-23.415,1.273-47.408,4.434-69.963,11.123-9.817,2.911-19.545,6.355-29.126,10.229-1.007-12.959-2.935-25.923-5.121-38.613A135.755,135.755,0,0,0,578.4,169.54c-4.213-10.661-8.376-21.72-14.01-31.786-5.581-9.973-13.753-19.895-20.736-28.242a77.978,77.978,0,0,0-9.114-9.393c-8.458-7.24-17.586-14.94-27.479-20.376-23.5-12.911-46.3-18.229-72.9-19.824a98.882,98.882,0,0,0-15.753.409,373.085,373.085,0,0,0-39.47,5.7c-22.362,4.7-44.343,12.289-65.818,20-27.933,10.031-55.411,21.539-82.4,33.859a800.821,800.821,0,0,0-118.893,67.079C63.733,219.8,18.012,256.848-22.983,298.247c-16.067,16.226-26,39.891-26,62.766,0,21.77,9.67,47.776,26,62.765,16.916,15.529,39.125,27.057,62.765,26,23.479-1.052,45.889-8.956,62.765-26A802.977,802.977,0,0,1,172.62,360.9a808.329,808.329,0,0,1,158.467-92.513q22.819-9.218,46.164-17.04c12-4,24.137-8.015,36.45-11.214.969,16.833.179,33.732.595,50.606a367.017,367.017,0,0,0,5.928,54.861c3.119,17.6,10.3,34.529,18.244,50.39,17.2,34.307,52.64,59.906,91.857,59.866,26.55-.026,48.821-9.649,70.18-24,17.223-11.568,34.935-22.424,53.641-31.38a215.981,215.981,0,0,1,31.7-8.906,222.57,222.57,0,0,1,33.217.111,241.666,241.666,0,0,1,37.33,10.259A248.172,248.172,0,0,1,790.787,422.2c32.068,26.933,58.82,59.457,88.72,88.7,39.006,38.152,84.521,69.816,132.949,94.8,27.262,14.067,55.437,26.627,83.953,37.9a275.092,275.092,0,0,0,91.68,19.491,123.011,123.011,0,0,0,17.285-.651c13.084-1.408,26.682-2.675,39.448-6.265,11.383-3.2,22.388-8.394,33.111-13.162a108.859,108.859,0,0,0,11.408-5.812c12.759-7.572,24.643-17.089,35.643-26.994a155.779,155.779,0,0,0,16.868-18.027,564.559,564.559,0,0,0,44.357-63.6c7.891-13.081,15.748-26.207,24.516-38.716a162.391,162.391,0,0,1,12.062-12.533c1.308-.822,2.628-1.628,3.971-2.4,19.261-11.111,34.9-31.658,40.792-53.048A67.249,67.249,0,0,0,1469.137,386.494Z" transform="translate(-45.637 345.942)"/></g></svg>