<svg id="logo" xmlns="http://www.w3.org/2000/svg" width="158.18" height="30.11" viewBox="0 0 158.18 30.11">
  <path id="Tracé_1" data-name="Tracé 1" d="M31.18,0H22.15s-.31,0-.39.19-.24.58-.24.58L10.7,26.84s.95,2.33,1.09,2.52a.8.8,0,0,0,.73.32h6.99a.63.63,0,0,0,.3-.1,1.608,1.608,0,0,0,.43-.54L31.93.92a.81.81,0,0,0-.07-.74A.978.978,0,0,0,31.18,0Z" fill="#accdff"/>
  <path id="Tracé_2" data-name="Tracé 2" d="M16.19,13.61,10.65,1.03s-.16-.39-.3-.64S9.61,0,9.61,0H1.04S.34,0,.09.33a1.17,1.17,0,0,0,0,.9L10.7,26.84Z" fill="#2f81ff"/>
  <path id="Tracé_3" data-name="Tracé 3" d="M49.64,20.02v.78a5.8,5.8,0,0,1-.04.74H35.55a3.29,3.29,0,0,0,.49,1.48,4.238,4.238,0,0,0,1.05,1.15,4.961,4.961,0,0,0,1.44.76,5.1,5.1,0,0,0,1.65.27,5.453,5.453,0,0,0,2.57-.56,5.075,5.075,0,0,0,1.71-1.46l4.44,2.8a9.091,9.091,0,0,1-3.6,3.06,11.984,11.984,0,0,1-5.2,1.07,12.553,12.553,0,0,1-4.13-.68,10.012,10.012,0,0,1-3.41-1.99,9.283,9.283,0,0,1-2.3-3.21,10.7,10.7,0,0,1-.84-4.36,10.809,10.809,0,0,1,.82-4.3,9.472,9.472,0,0,1,2.22-3.27,9.9,9.9,0,0,1,3.31-2.08,11.391,11.391,0,0,1,4.13-.74,10.413,10.413,0,0,1,3.93.72,8.611,8.611,0,0,1,3.08,2.08,9.553,9.553,0,0,1,2,3.31A12.434,12.434,0,0,1,49.64,20.02Zm-5.88-2.45a3.867,3.867,0,0,0-.95-2.61,3.58,3.58,0,0,0-2.86-1.09,4.948,4.948,0,0,0-1.71.29,4.287,4.287,0,0,0-1.36.8,3.84,3.84,0,0,0-.93,1.19,3.591,3.591,0,0,0-.39,1.42Z" fill="#2f81ff"/>
  <path id="Tracé_4" data-name="Tracé 4" d="M65.75,15.35a5.166,5.166,0,0,0-.84-.16,7.264,7.264,0,0,0-.8-.04,4.54,4.54,0,0,0-2.16.47,4.432,4.432,0,0,0-1.4,1.13,4.341,4.341,0,0,0-.76,1.44,4.653,4.653,0,0,0-.23,1.36v9.94H53.18V10.13h6.15v2.8h.08a6.319,6.319,0,0,1,2.1-2.43,5.394,5.394,0,0,1,3.15-.94,6.338,6.338,0,0,1,.76.04,3.147,3.147,0,0,1,.6.12Z" fill="#2f81ff"/>
  <path id="Tracé_5" data-name="Tracé 5" d="M76.55,14.84v7.42a3.262,3.262,0,0,0,.53,2.05,2.24,2.24,0,0,0,1.89.68,7.055,7.055,0,0,0,.99-.08,3.612,3.612,0,0,0,.88-.23l.08,4.67a10.447,10.447,0,0,1-1.67.41,11.477,11.477,0,0,1-2.02.17,9.387,9.387,0,0,1-3.27-.49,5.039,5.039,0,0,1-2.12-1.41,5.6,5.6,0,0,1-1.15-2.19,10.747,10.747,0,0,1-.35-2.83v-8.2H67.23l9.34-9.85v5.1h4.55v4.75H76.55Z" fill="#2f81ff"/>
  <path id="Tracé_6" data-name="Tracé 6" d="M96.84,15.35a5.166,5.166,0,0,0-.84-.16,7.264,7.264,0,0,0-.8-.04,4.54,4.54,0,0,0-2.16.47,4.432,4.432,0,0,0-1.4,1.13,4.341,4.341,0,0,0-.76,1.44,4.653,4.653,0,0,0-.23,1.36v9.94H84.27V10.13h6.15v2.8h.08a6.319,6.319,0,0,1,2.1-2.43,5.394,5.394,0,0,1,3.15-.94,6.339,6.339,0,0,1,.76.04,3.147,3.147,0,0,1,.6.12Z" fill="#2f81ff"/>
  <path id="Tracé_7" data-name="Tracé 7" d="M106.33,3.9a3.38,3.38,0,0,1-.29,1.38,3.7,3.7,0,0,1-.78,1.11,3.491,3.491,0,0,1-1.17.74,3.813,3.813,0,0,1-1.42.27,3.566,3.566,0,0,1-2.61-1.03A3.343,3.343,0,0,1,99.01,3.9a3.377,3.377,0,0,1,.27-1.34,3.106,3.106,0,0,1,.78-1.11,4.291,4.291,0,0,1,1.17-.76A3.6,3.6,0,0,1,102.67.4a3.813,3.813,0,0,1,1.42.27,3.594,3.594,0,0,1,1.17.74,3.7,3.7,0,0,1,.78,1.11A3.225,3.225,0,0,1,106.33,3.9Zm-6.85,25.58V10.089h6.38v19.39Z" fill="#2f81ff"/>
  <path id="Tracé_8" data-name="Tracé 8" d="M123.71,16.36a3.892,3.892,0,0,0-1.48-1.13,4.467,4.467,0,0,0-1.91-.43,4.1,4.1,0,0,0-1.83.41,4.412,4.412,0,0,0-1.4,1.09,5.315,5.315,0,0,0-1.25,3.49,5.71,5.71,0,0,0,.31,1.91,4.626,4.626,0,0,0,.92,1.58,4.373,4.373,0,0,0,1.44,1.07,4.436,4.436,0,0,0,1.89.39,5.248,5.248,0,0,0,1.93-.37,3.682,3.682,0,0,0,1.54-1.07l3.54,4.32a8.249,8.249,0,0,1-3.11,1.83,12.285,12.285,0,0,1-4.05.66,12.783,12.783,0,0,1-4.29-.7,10.065,10.065,0,0,1-3.46-2.04,9.623,9.623,0,0,1-2.31-3.25,10.6,10.6,0,0,1-.84-4.32,10.511,10.511,0,0,1,.84-4.28,9.526,9.526,0,0,1,2.31-3.25,10.109,10.109,0,0,1,3.46-2.06,12.4,12.4,0,0,1,4.25-.72,11.179,11.179,0,0,1,2.08.19,14.177,14.177,0,0,1,1.99.53,8.535,8.535,0,0,1,1.75.82,7.648,7.648,0,0,1,1.38,1.07Z" fill="#2f81ff"/>
  <path id="Tracé_9" data-name="Tracé 9" d="M129.68,12.74a11.072,11.072,0,0,1,3.99-2.45,13.807,13.807,0,0,1,4.65-.82,12.55,12.55,0,0,1,4.15.6,6.165,6.165,0,0,1,2.74,1.87,8.054,8.054,0,0,1,1.54,3.19,19.094,19.094,0,0,1,.49,4.57v9.77H141.4V27.41h-.12a4.811,4.811,0,0,1-2.24,1.87,7.968,7.968,0,0,1-3.25.66,9.78,9.78,0,0,1-2.41-.31,7.1,7.1,0,0,1-2.28-1.01,5.456,5.456,0,0,1-1.69-1.87,5.786,5.786,0,0,1-.66-2.88,4.888,4.888,0,0,1,1.15-3.39,7.551,7.551,0,0,1,2.96-1.99,15.358,15.358,0,0,1,4.03-.93,40.133,40.133,0,0,1,4.32-.23v-.31a2.379,2.379,0,0,0-1.01-2.12,4.369,4.369,0,0,0-2.49-.68,6.214,6.214,0,0,0-2.63.58,8.651,8.651,0,0,0-2.16,1.4Zm11.72,8.29h-.82c-.7,0-1.41.03-2.12.1a9.245,9.245,0,0,0-1.91.37,3.469,3.469,0,0,0-1.38.8,1.838,1.838,0,0,0-.54,1.38,1.659,1.659,0,0,0,.25.93,1.9,1.9,0,0,0,.64.62,2.543,2.543,0,0,0,.9.33,4.771,4.771,0,0,0,.97.1,3.646,3.646,0,0,0,4.01-3.97Z" fill="#2f81ff"/>
  <path id="Tracé_10" data-name="Tracé 10" d="M151.68,29.48V.05h6.5V29.48Z" fill="#2f81ff"/>
</svg>
